<svg  xmlns="http://www.w3.org/2000/svg"
      xmlns:xlink="http://www.w3.org/1999/xlink"
      width="190" height="100" viewBox="32.5 -1.5 190 100">
    <style>
      .cls-2 {
        fill: white;
      }
    </style>
    <path xmlns="http://www.w3.org/2000/svg" id="path" class="cls-2" d="M141.87,75.447s-14.79,16.993-15.626,2.81c-15.387,12.631-20.769,2.17-20.53-.239-4.59,4.568-16.526,9.766-32.607,2.876-3.093-1.324-26.726-11.936-23.992-29.981a29.233,29.233,0,0,1,6.109-13.065c17.231-22.494,51.933-23.72,61.7-23.558,34.018.543,85.409,16.526,105.255,42.124a26.607,26.607,0,0,1,.412,32.77c-15.7,19.847-54.624,29.971-118.927,12.815-6.728-1.78-66.886-20.324-59.616-53.018.944-4.243,3.744-7.52,6.511-10.851-7.444,9.527-5.632,17.85-4.34,22.4,3.689,13.466,25.131,25.391,27.128,26.346,18.447,8.92,32.553,11.5,41.766,13.4,18.338,3.787,37.328,7.6,56.056,6.4,79.8-5.23,65.508-59.442,5.426-76.174C134.762,18.859,89.1,18.479,70.253,29.678c-13.1,7.8-33.953,26.162-4.145,44.066,7.368,4.427,25.142,7.411,32.553-4.243C104.672,60,96.979,41.657,114.08,34.843a22.614,22.614,0,0,1,11.079-.922c4.232.575,7.455,2.615,7.726,7.249.326,5.718-7.726,7.021-11.621,7.238,0,0,2.083-1.085,3.255-5.263.694-2.4.488-10.135-6.511-8.323-9.234,2.4-7.3,28.365-7.509,30.774.792-.64,2.843-2.572,3.375-2.973,6.934-5.219,11.936-5.664,15.387-4.449,2.279.8,2.539,2.951,2.073,4.981a10.483,10.483,0,0,1-.662,1.931c-1.563,2.659-3.961,2.81-7.769,2.9-.239-.239,1.91-3.581,2.029-3.906.553-1.606,1.085-2.68,0-4.221-1.313-5.089-17.362,13.781-9.408,21.973,2.018,1.324,9.929-2.17,11.22-5.491,1.628-4.178,9.766-16.9,10.981-18.143h7.6c-.792,2.007-11.752,17.438-12.576,19.532-.412,1.085-1.194,1.508-.076,2.865,1.91,3.255,16.494-16.016,19.814-22.44h7.6c.553.651-18.957,25.728-11.936,23.634,7.878-2.355,14.4-19.532,16.472-22.2-.64-.553-3.407.629-3.1-.955.315-1.085,2.5-.369,3.82-.477,2.528-3.353,3.646-5.881,6.923-10.743h7.433c-1.986,4.2-5.143,8.768-6.207,10.743h5.729c.727-.358,5.426-8.768,6.923-10.743h7.878c-.054.445-6.283,9.874-6.684,10.5,1.27.315,2.615-.228,3.1.477.119,1.79-2.3,1.085-3.82,1.194-1.443,1.877-10.851,15.267-11.383,20.1-.64,5.241,7.292.412,7.8-1,3.1-8.594,9.668-18.447,10.981-20.53,2.626,0,5.252.239,7.878.239.5.586-14.106,17.362-12.533,22.917.814,2.951,7.6-2.463,9.907-3.581-3.3,3.711-7.368,6.782-12.142,6.782-2.17-.239-2.984-1.866-4.058-4.058-2.366,1.7-12.381,6.858-14.106.239-2.387,1.671-14.866,8.431-13.716-2.734-5.74,5.577-10.167,6.652-12.066,6.077C140.307,83.1,141.87,75.447,141.87,75.447Zm30.925-15.8c-.608.141-13.434,17.785-11.47,22.375.705,1.628,6.066-1.313,7.6-3.038a102.369,102.369,0,0,1,9.549-19.337h-5.729" transform="translate(-9.129 -14.3)"/>
    <path xmlns="http://www.w3.org/2000/svg" id="path-3" data-name="path" class="cls-2" d="M187.516,45.032a3.744,3.744,0,0,1,4.264.619c1.009.846,1.552,3.841-.239,5.729C187.9,55.177,181.157,48.526,187.516,45.032Z" transform="translate(2.91 -11.717)"/>
</svg>
